<!-- By @blinry --><svg xmlns="http://www.w3.org/2000/svg" width="1000" height="524.882" viewBox="0 0 264.58336 138.87494"><path style="line-height:normal;font-variant-ligatures:normal;font-variant-position:normal;font-variant-caps:normal;font-variant-numeric:normal;font-variant-alternates:normal;font-feature-settings:normal;text-indent:0;text-align:start;text-decoration-line:none;text-decoration-style:solid;text-decoration-color:#000;text-transform:none;text-orientation:mixed;shape-padding:0;isolation:auto;mix-blend-mode:normal" d="M70.06 18.577a5.426 5.426 0 0 0-2 .315c-.71.255-1.328.643-1.886 1.058-1.91 1.42-3.288 3.252-4.992 4.46-1.47 1.044-3.408 1.75-4.918 3.268-.238.24-.47.506-.672.807-.42.623-.643 1.28-.853 1.876a40.606 40.606 0 0 1-1.976-.538c-1.463-.444-2.986-1.004-4.652-1.167-.704-.068-1.367-.062-1.982-.105-.594-.043-1.247-.143-1.96-.126-1.548.035-2.914.61-4.183 1.022-2.007.65-4.287 1.08-6.226 2.442-.148.104-.29.217-.43.33-.727.208-1.367.54-1.956.858-1.318.712-2.69 1.517-3.778 2.72-.866.955-1.526 2.165-1.67 3.516a5.223 5.223 0 0 0 .55 2.948.72.72 0 0 0 1.196.124 10.86 10.86 0 0 1 2-1.88c.593-.43 1.23-.8 1.896-1.11.334-.152.676-.286 1.023-.407a9.32 9.32 0 0 0 3.42 1.348c.507.088 1.01.133 1.51.148-.16.12-.32.238-.476.363-1.785 1.423-3.268 3.08-4.905 4.45-.754.628-1.58 1.23-2.372 1.935-.793.706-1.555 1.522-2.088 2.527-.073.138-.12.253-.166.365-.417.47-.73.99-.995 1.496-.517.986-.94 2.055-1.143 3.192-.203 1.14-.184 2.386.324 3.526a4.703 4.703 0 0 0 1.813 2.075.72.72 0 0 0 1.087-.496c.133-.817.362-1.618.683-2.38.156-.372.336-.73.535-1.072 1.518.148 3.076-.137 4.43-.867 1.585-.852 2.744-2.163 3.866-3.326a61.59 61.59 0 0 1 3.734-3.558c2.527-.136 5.096.566 7.186 1.995.764.522 1.45 1.134 2.088 1.795-8.29 6.46-13.632 16.53-13.632 27.844 0 19.48 15.816 35.292 35.295 35.292 19.48 0 35.29-15.813 35.29-35.292 0-9.108-3.47-17.402-9.143-23.665a38.75 38.75 0 0 0 5.448-2.488c2.943-1.63 5.627-3.587 8.638-4.503 2.876-.876 6.09-.796 9.286-1.482.192-.04.386-.09.58-.14.193.045.392.083.603.102.792.07 1.54-.038 2.23-.147 1.48-.235 3.014-.545 4.45-1.23.795-.38 1.594-.893 2.19-1.658a4.45 4.45 0 0 0 .92-3.12.72.72 0 0 0-1.095-.548 3.88 3.88 0 0 1-2.327.563c-.622-.05-1.295-.27-2.05-.456a14.05 14.05 0 0 0-1.924-.327c-.044-.048-.088-.098-.135-.144-.747-.73-1.64-1.19-2.478-1.59-1.784-.85-3.682-1.57-5.698-1.864a13.025 13.025 0 0 0-1.533-.135 11.708 11.708 0 0 0-1.546.058 9.822 9.822 0 0 0-2.997.787c-.62.277-1.16.598-1.685.832-1.144.51-2.46.74-3.82 1.052-1.616.37-3.15.817-4.648.83a8.063 8.063 0 0 1-4.25-1.175 8.007 8.007 0 0 1-1.665-1.367c.07-.31.13-.624.174-.944.416-3.03-.48-5.906-.018-8.466.16-.888.5-1.81.724-2.836.228-1.032.333-2.202-.09-3.32a4.262 4.262 0 0 0-1.132-1.645 4.765 4.765 0 0 0-1.696-.98 5.42 5.42 0 0 0-1.897-.264 6.387 6.387 0 0 0-1.85.348c-.818.28-1.61.725-2.24 1.386-.55.577-.92 1.26-1.18 1.965a6.922 6.922 0 0 1-3.713.32c-2.042-.4-3.892-1.758-5.94-2.925-1.288-.733-2.622-1.352-3.957-1.928-.41-.177-.85-.365-1.342-.495a5.374 5.374 0 0 0-1.208-.175zm-.044 1.437c.3.01.598.052.885.127.363.097.74.253 1.14.427 1.312.566 2.596 1.163 3.814 1.857 1.942 1.106 3.91 2.603 6.375 3.087a8.214 8.214 0 0 0 3.553-.102c-.14.742-.217 1.466-.325 2.155-.356 2.264-1.087 4.562-1.28 7.028a21.515 21.515 0 0 0-.055 1.826 7.204 7.204 0 0 0-1.667-1.41c-1.215-.74-2.528-1.074-3.687-1.5-1.303-.482-2.546-1.11-3.662-1.9a13.71 13.71 0 0 1-3.74-4.002.72.72 0 0 0-1.098-.157 48.54 48.54 0 0 1-7.712 5.734.72.72 0 0 0-.325.803 21.3 21.3 0 0 1 .702 6.24c-.036.995-.148 1.95-.487 2.778-.074.183-.198.332-.297.5-.072-1.16-.432-2.298-1.146-3.22v-.002c-.08-.1-.164-.2-.256-.298a2.916 2.916 0 0 0-.652-.525 2.458 2.458 0 0 0-.405-.19 2.643 2.643 0 0 0-1.298-.113c-.135.02-.267.05-.397.086-.014.004-.025.01-.038.015-.14.043-.278.093-.41.154-.41.186-.775.45-1.085.766-.005-.468.004-.95 0-1.443v-.012a17.512 17.512 0 0 0-.02-.75v-.006a11.374 11.374 0 0 0-.064-.775c-.12-1.01-.39-1.932-.562-2.81-.172-.878-.247-1.735-.068-2.49.033-.137.076-.28.125-.426l.16-.462c.235-.654.442-1.25.752-1.712a4.1 4.1 0 0 1 .498-.595c1.215-1.22 3.048-1.914 4.73-3.107 1.948-1.382 3.334-3.226 5.02-4.48.49-.364.994-.67 1.514-.858.467-.168.97-.246 1.47-.23zm21.524 1.502c.48-.016.955.045 1.396.19.44.148.85.38 1.184.683.333.3.597.68.75 1.087.275.723.23 1.61.032 2.502-.198.898-.543 1.838-.733 2.888-.55 3.027.362 5.928.004 8.525-.32 2.324-1.645 4.56-2.327 7.15-.322 1.222-.474 2.394-.686 3.542a3.824 3.824 0 0 0-1.163-.957c-.587-.31-1.278-.465-1.98-.35a2.84 2.84 0 0 0-.507.134h-.002c-.025.01-.046.023-.07.032a3.19 3.19 0 0 0-.39.18 3.94 3.94 0 0 0-.778.577 5.944 5.944 0 0 0-1.638 2.726c-.088-.36-.188-.715-.197-1.082-.043-1.82.743-3.713 1.078-5.83.483-3.057-.122-6.032.097-8.81.177-2.248.89-4.51 1.268-6.918.153-.974.243-1.91.458-2.768.214-.854.564-1.646 1.104-2.212.434-.456 1.022-.798 1.665-1.02.465-.16.954-.253 1.435-.27zM44.202 29.86c.55-.012 1.158.075 1.825.123.693.05 1.344.044 1.946.102 1.427.14 2.86.653 4.373 1.112.652.2 1.312.363 1.97.528-.202 1.013-.088 2.013.09 2.926.188.963.44 1.852.544 2.707.032.275.048.558.058.846a31.46 31.46 0 0 1-1.07-.277c-2.175-.61-4.346-1.43-6.606-1.395-2.58.042-5.025 1.2-7.596 1.414a10.45 10.45 0 0 1-3.008-.19c.05-.04.098-.087.147-.13.057-.044.11-.092.163-.143l.012-.01c.187-.19.34-.407.47-.635.03-.052.067-.102.095-.156v-.002c.02-.042.034-.087.054-.13.112-.253.2-.518.244-.794a3.183 3.183 0 0 0-.395-2.117c-.002 0-.003 0-.003-.002l-.006-.008a3.216 3.216 0 0 0-1.53-1.334c1.35-.605 2.898-.976 4.45-1.48 1.34-.434 2.577-.925 3.772-.952zm-9.57 3.61c.128 0 .254.01.374.03a1.753 1.753 0 0 1 .633.226c.26.154.488.378.638.636a1.712 1.712 0 0 1 .208.563c.02.1.03.202.03.302a1.688 1.688 0 0 1-.084.556c-.054.17-.136.333-.24.478.002.002 0 .002 0 .003-.05.072-.107.14-.168.203l-.002.002a1.775 1.775 0 0 1-.67.427h-.003a1.7 1.7 0 0 1-.254.07l.007-.002-.007.002h-.002l-.027.004a.72.72 0 0 0-.002 0c-.88.093-1.743.28-2.577.545a.72.72 0 0 0-.12.05c-.474.15-.944.318-1.396.526a12.67 12.67 0 0 0-2.14 1.25c-.472.343-.855.788-1.273 1.194-.07-.362-.24-.706-.2-1.07.104-.973.604-1.924 1.307-2.7.897-.99 2.115-1.728 3.398-2.42.595-.322 1.164-.608 1.728-.76.04-.01.08-.015.12-.024.11-.025.217-.05.325-.063.04-.006.08-.006.12-.01.095-.008.19-.018.28-.018zM115.49 38.9c.17-.004.34-.003.512 0 .457.013.914.054 1.367.12 1.816.266 3.587.93 5.3 1.747.804.38 1.55.785 2.105 1.327.06.06.108.125.163.186a.72.72 0 0 0 .073.108c.165.198.3.402.4.613.153.318.232.663.22.986-.012.35-.13.715-.332 1.036a3.046 3.046 0 0 1-.824.852c-.494.35-1.09.592-1.742.773a.72.72 0 0 0-.156.065l-.043.01a25.69 25.69 0 0 0-4.61-.493c-4.174-.063-8.367.875-12.096 2.76-1.852.934-3.592 2.092-5.506 2.89-.956.4-1.957.71-2.986.837-.94.117-1.906.08-2.82-.165a35.497 35.497 0 0 0-2.464-1.762c0-.105.01-.21.005-.314.128-.382.24-.768.33-1.155.358-1.533.49-3.038.852-4.416.418-1.587 1.188-3.16 1.756-4.86.425.385.882.736 1.37 1.036a9.416 9.416 0 0 0 4.988 1.38c1.76-.017 3.39-.51 4.95-.865 1.308-.3 2.72-.535 4.075-1.14.62-.276 1.16-.595 1.684-.83 1.06-.475 2.235-.703 3.43-.728zm-69.744.73c.216 0 .43.004.645.015.214.012.426.03.637.056 1.65.205 3.29.912 5.077 1.436.893.262 1.832.476 2.812.528.07.004.138.002.206.002.036.28.088.56.154.842.013.07.03.137.046.206-.025.246-.04.49-.034.73v.018c-.36.34-.763.64-1.216.865-1.332.66-2.937.807-4.58.862-.42.014-.847.024-1.28.038-1.056-.062-2.112-.12-3.162.002a9.348 9.348 0 0 0-3.7 1.252 411.253 411.253 0 0 0-4.806 3.63c-1.22.936-2.435 1.882-3.645 2.832.073-.165.137-.335.18-.513a2.938 2.938 0 0 0-.128-1.777 2.965 2.965 0 0 0-1.308-1.487c-.085-.048-.174-.08-.262-.12-.03-.012-.056-.028-.085-.038a3.01 3.01 0 0 0-1.06-.22c.16-.163.312-.332.486-.487.723-.643 1.537-1.237 2.338-1.907 1.744-1.458 3.22-3.106 4.88-4.43.78-.62 1.62-1.168 2.49-1.68.442-.063.88-.13 1.312-.2.392-.065.78-.127 1.168-.186.115-.017.23-.032.345-.05.334-.047.667-.088.997-.123.106-.012.212-.025.317-.034.118-.01.236-.02.354-.028.247-.017.493-.03.736-.032.03 0 .058-.003.086-.003zm13.075.926c.14 0 .27.02.385.062.055.02.11.046.167.08.017.01.034.024.05.035.04.026.08.052.12.084.112.09.22.206.324.34a4.46 4.46 0 0 1 .868 3.385c-.008.056-.02.115-.03.172-.023.153-.048.307-.08.465-.07.358-.153.725-.232 1.11a15.93 15.93 0 0 0-.324 2.7c-.015.517.083 1.027.128 1.542-.295-.184-.645-.275-.88-.527-.645-.693-1.065-1.66-1.484-2.69-.308-.755-.6-1.492-.814-2.232-.165-.568-.28-1.13-.293-1.673-.006-.214.01-.424.035-.63a.72.72 0 0 0 .002-.015c.02-.153.05-.3.087-.442a2.714 2.714 0 0 1 .153-.438 2.47 2.47 0 0 1 .577-.795c.027-.025.056-.047.084-.07.22-.185.47-.327.73-.402.143-.042.29-.062.427-.062zm68.05 2.313c.198.035.397.05.59.1.68.167 1.426.424 2.28.493.68.055 1.35-.068 1.998-.272a3 3 0 0 1-.513 1.06c-.403.517-1.002.924-1.675 1.245-1.11.53-2.367.812-3.66 1.03a4.28 4.28 0 0 0 .39-.44c.086-.09.17-.186.238-.297.32-.514.527-1.114.55-1.748a1.918 1.918 0 0 0-.04-.42 3.515 3.515 0 0 0-.157-.75zm-54.085 4.337c3.572 0 7.006.578 10.228 1.623-.007.182-.018.363-.014.55a7.83 7.83 0 0 0 1.46 4.327c.003.03.004.062.006.092.046.85.056 1.698.02 2.542-.035.87-.122 1.736-.258 2.595a.72.72 0 0 0 .78.828 5.423 5.423 0 0 0 2.788-1.104c1.018-.785 1.66-1.838 2.247-2.794.428-.7.864-1.422 1.24-2.202.096-.204.188-.415.275-.63a33.265 33.265 0 0 1 4.62 3.84.695.695 0 0 0 .433.438 33.026 33.026 0 0 1 9.31 23.034c0 18.314-14.82 33.14-33.135 33.14-18.314 0-33.138-14.826-33.138-33.14 0-13 7.474-24.232 18.36-29.662.082.102.165.204.256.302a5.415 5.415 0 0 0 2.572 1.543.72.72 0 0 0 .89-.836 11.91 11.91 0 0 1-.22-2.502 33.055 33.055 0 0 1 11.28-1.985zm15.73.973c.268.006.553.082.812.22.07.036.14.078.207.123.134.09.26.197.374.315.172.177.32.383.434.603v.002a2.358 2.358 0 0 1 .182.457c.012.042.02.09.03.136l.026.127c.014.09.024.184.032.284a.72.72 0 0 0 .005.036c.02.31 0 .634-.064.956-.104.534-.308 1.067-.565 1.602-.334.696-.745 1.377-1.17 2.073-.58.948-1.153 1.834-1.902 2.413-.328.254-.755.315-1.15.455.058-.525.134-1.05.156-1.58.037-.897.024-1.792-.024-2.68-.005-.087-.007-.166-.01-.25a.72.72 0 0 0-.002-.048 23.55 23.55 0 0 1-.047-1.06v-.128c0-.13 0-.256.007-.38.005-.106.018-.21.03-.31.006-.066.01-.133.018-.197a4.562 4.562 0 0 1 1.362-2.598c.31-.294.663-.497.994-.552a1.41 1.41 0 0 1 .262-.017zm-58.327 2.048a1.647 1.647 0 0 1 .755.196c.15.083.287.196.402.328.115.13.208.28.27.438.114.282.138.612.067.908-.018.073-.04.145-.07.215v.002a1.517 1.517 0 0 1-.395.555 8.886 8.886 0 0 0-2.1 2.043c-.02.024-.04.047-.058.072-.038.052-.07.105-.106.157-.036.053-.076.11-.107.158a.72.72 0 0 0-.005.008 10.37 10.37 0 0 0-.884 1.665c-.188.448-.268.93-.4 1.398-.176-.217-.43-.366-.542-.62-.35-.788-.392-1.747-.224-2.688.17-.95.533-1.886 1-2.778.25-.478.52-.91.837-1.26a.72.72 0 0 0 .02-.02c.063-.067.084-.093.068-.078.353-.358.787-.613 1.21-.68.084-.013.172-.02.26-.018zm96.42 12.317c-3.43 0-5.917.34-7.463 1.02-1.508.677-2.374 2.24-2.6 4.692V92.91c0 2.374.66 3.902 1.978 4.58 1.357.64 3.073.96 5.146.96h7.293c2.79 0 4.693-.45 5.71-1.356 1.056-.905 1.524-2.04 1.824-3.243.3-1.198.292-2.047-.085-3.705-.34-1.697-1.23-2.927-1.23-3.116-.526 2.24-.762 4.557-2.092 6.558-1.244 1.998-3.524 2.997-6.84 2.997-.114.038-.585.057-1.414.057h-2.375c-.98 0-1.847-.245-2.6-.735-.717-.528-1.075-1.62-1.075-3.28v-10.14h7.69v-2.884h-7.69V68.54c0-1.81.358-2.96 1.075-3.45.753-.49 2.356-.735 4.806-.735 2.752 0 4.806.36 6.163 1.075 1.356.716 2.3 2.13 2.826 4.24a4.44 4.44 0 0 0-1.413-.226c-1.168 0-1.96.415-2.376 1.244-.377.792-.565 1.414-.565 1.866 0 .754.264 1.357.792 1.81.565.452 1.376.678 2.43.678.98 0 1.697-.377 2.15-1.13.452-.793.68-1.83.68-3.11 0-2.225-.793-4.148-2.376-5.77-1.583-1.657-4.373-2.487-8.37-2.487zm-52.032.66c-.12.097-.182.248-.182.454 0 .193.06.34.182.436.874 0 1.608.46 2.203 1.383.594.92.856 2.128.783 3.62l-.31 5.55c-.073 1.444.218 2.597.874 3.458.656.85 1.67 1.56 3.04 2.13v.145c-1.383.4-2.403.97-3.058 1.71-.645.728-.93 1.863-.857 3.403l.31 6.187c.048.922-.007 1.693-.165 2.312-.145.62-.4 1.09-.765 1.42-.352.34-.673.58-.965.727-.28.157-.643.297-1.092.42a.595.595 0 0 0-.182.435c0 .182.06.333.182.455 1.918 0 3.545-.467 4.88-1.4 1.348-.923 1.985-2.355 1.912-4.296l-.236-6.86c0-1.044.292-1.936.874-2.676.595-.752 1.523-1.188 2.786-1.31a.815.815 0 0 0 .238-.618.85.85 0 0 0-.238-.582c-2.513-.292-3.733-1.657-3.66-4.095l.236-6.333c.073-2.232-.51-3.803-1.747-4.713-1.226-.91-2.907-1.365-5.044-1.365zm11.437 0c-.122.097-.183.248-.183.454 0 .193.06.34.183.436.874 0 1.608.46 2.203 1.383.595.92.856 2.128.783 3.62l-.31 5.55c-.073 1.444.218 2.597.874 3.458.655.85 1.67 1.56 3.04 2.13v.145c-1.383.4-2.403.97-3.06 1.71-.642.728-.927 1.863-.854 3.403l.31 6.187c.048.922-.008 1.693-.165 2.312-.146.62-.4 1.09-.764 1.42-.35.34-.674.58-.965.727-.28.157-.643.297-1.092.42a.595.595 0 0 0-.183.435c0 .182.06.333.183.455 1.918 0 3.545-.467 4.88-1.4 1.348-.923 1.986-2.355 1.913-4.296l-.238-6.86c0-1.044.292-1.936.875-2.676.595-.752 1.523-1.188 2.786-1.31a.815.815 0 0 0 .236-.618.85.85 0 0 0-.237-.582c-2.514-.292-3.734-1.657-3.662-4.095l.238-6.333c.073-2.232-.51-3.803-1.75-4.713-1.225-.91-2.906-1.365-5.043-1.365zm-26.442.035c-1.917 0-3.55.468-4.898 1.402-1.336.922-1.966 2.354-1.894 4.295l.22 6.86c0 1.044-.292 1.94-.875 2.693-.583.74-1.506 1.17-2.77 1.293a.81.81 0 0 0-.253.636c.024.23.11.418.254.563 2.502.29 3.715 1.656 3.643 4.094l-.22 6.333c-.07 2.245.505 3.816 1.732 4.713 1.237.91 2.925 1.365 5.06 1.365.098-.097.147-.248.147-.454 0-.195-.05-.34-.146-.437-.873 0-1.608-.46-2.203-1.383-.595-.91-.855-2.11-.782-3.603l.29-5.568c.086-1.43-.205-2.578-.873-3.44-.655-.86-1.67-1.576-3.04-2.146v-.146c1.395-.4 2.414-.964 3.058-1.692.643-.74.93-1.88.856-3.422l-.29-6.17c-.05-.92-.002-1.69.144-2.31.146-.63.4-1.11.765-1.437.364-.34.686-.584.965-.73a5.22 5.22 0 0 1 1.11-.418.677.677 0 0 0 .147-.436.707.707 0 0 0-.146-.456zm11.438 0c-1.918 0-3.55.468-4.898 1.402-1.336.922-1.968 2.354-1.895 4.295l.22 6.86c0 1.044-.293 1.94-.876 2.693-.583.74-1.506 1.17-2.77 1.293a.81.81 0 0 0-.254.636c.025.23.11.418.255.563 2.502.29 3.717 1.656 3.644 4.094l-.22 6.333c-.072 2.245.505 3.816 1.73 4.713 1.24.91 2.927 1.365 5.064 1.365.097-.097.146-.248.146-.454 0-.195-.05-.34-.146-.437-.874 0-1.608-.46-2.203-1.383-.595-.91-.856-2.11-.784-3.603l.293-5.568c.085-1.43-.206-2.578-.874-3.44-.657-.86-1.67-1.576-3.042-2.146v-.146c1.396-.4 2.416-.964 3.06-1.692.643-.74.928-1.88.855-3.422l-.292-6.17c-.047-.92 0-1.69.147-2.31.145-.63.4-1.11.765-1.437.364-.34.686-.584.965-.73a5.22 5.22 0 0 1 1.11-.418.677.677 0 0 0 .147-.436.707.707 0 0 0-.146-.456zm72.162 1.002v34.265h3.45V64.242zm81.97 14.702c-1.697 0-3.186.452-4.467 1.356-1.244.867-1.866 2.262-1.866 4.185 0 1.81 1.602 3.41 4.806 4.806 3.242 1.358 5.09 2.47 5.54 3.337.453.83.68 1.583.68 2.262 0 1.13-.547 1.96-1.64 2.487-1.094.528-2.28.79-3.562.79-1.356 0-2.13-.602-2.317-1.808-.19-1.245-.49-2-.905-2.263a1.948 1.948 0 0 0-1.245-.453c-.904 0-1.507.51-1.808 1.527-.227.943.376 1.81 1.808 2.602 1.433.792 2.903 1.188 4.41 1.188.416 0 .718-.02.906-.057 2.336 0 4.145-.49 5.427-1.47 1.32-1.017 1.98-2.337 1.98-3.958 0-.98-.246-2.017-.736-3.11-.565-1.093-2.488-2.205-5.767-3.336-3.242-1.13-4.862-2.526-4.862-4.185 0-.942.227-1.64.68-2.092.452-.452 1.337-.68 2.656-.68h1.018c1.17 0 1.753.36 1.753 1.076l-.113.79a4.13 4.13 0 0 0-.056.68c0 .602.207 1.036.62 1.3.416.263.85.395 1.302.395a1.74 1.74 0 0 0 1.074-.34c.34-.264.566-.545.68-.847.113-.34.168-.603.168-.792 0-.904-.678-1.696-2.035-2.374-1.357-.68-2.733-1.018-4.128-1.018zm-19.54.282c-1.96 0-3.448.283-4.466.848-1.018.528-1.677.98-1.98 1.358-.263.34-.395.715-.395 1.13 0 .603.244 1.056.734 1.358.49.3.867.452 1.13.452.642 0 1.075-.17 1.3-.51.228-.376.34-.79.34-1.243 0-.378-.112-.83-.34-1.358.755-.64 1.717-.962 2.886-.962a5.94 5.94 0 0 1 1.64.227c.527.15 1.112.396 1.753.735.64.3 1.055.83 1.243 1.583.226.754.34 1.923.34 3.506-.34.68-2.224 1.282-5.655 1.81-3.43.49-5.257 1.3-5.483 2.43-.19 1.094-.283 1.754-.283 1.98 0 1.66.527 3.035 1.583 4.128 1.093 1.094 2.356 1.753 3.788 1.98 1.282.15 2.488-.246 3.62-1.188a16.645 16.645 0 0 0 2.996-3.11c0 1.47.322 2.563.962 3.28.68.678 1.49 1.017 2.432 1.017.867 0 1.602-.245 2.205-.735.64-.528.96-1.17.96-1.923-.64.828-1.282 1.244-1.923 1.244-1.13 0-1.696-1.13-1.696-3.393v-7.745c0-1.62-.075-2.79-.226-3.506-.15-.755-.79-1.51-1.92-2.263-1.132-.754-2.98-1.13-5.543-1.13zm-25.663.056c-1.093 0-2.13.49-3.11 1.47s-1.866 2.112-2.658 3.393v-4.523h-3.45v18.885h3.45v-11.42c0-1.51.584-2.96 1.752-4.355 1.17-1.395 2.28-2.092 3.336-2.092.565 0 1 .207 1.3.622.302.414.453 1.093.453 2.035v15.21h3.393v-11.42c0-1.51.585-2.96 1.753-4.355 1.17-1.395 2.28-2.092 3.337-2.092.565 0 .998.207 1.3.622.3.414.452 1.093.452 2.035v15.21h3.393V83.523c0-2.827-1.49-4.24-4.467-4.24-1.092 0-2.13.49-3.11 1.47s-1.865 2.11-2.657 3.392v-.622c0-2.827-1.488-4.24-4.466-4.24zm-28.13.34v18.885c0 1.697.32 3.45.96 5.26.64 1.846 1.678 3.938 3.11 6.275 1.433 2.338 3.544 3.506 6.333 3.506 1.018 0 1.98-.32 2.884-.96.904-.604 1.3-1.415 1.187-2.432-.225-1.056-.866-1.583-1.92-1.583-.49 0-.906.15-1.245.45-.377.34-.566.812-.566 1.415 0 .113.037.358.112.735 0 .905-.34 1.358-1.018 1.358-.867 0-1.884-.68-3.053-2.036-1.168-1.32-1.94-2.808-2.317-4.466a37.574 37.574 0 0 1-.792-5.146c-.15-1.772-.225-4.07-.225-6.898a18.575 18.575 0 0 0 2.658 3.393c.98.98 2.016 1.47 3.11 1.47 2.977 0 4.467-1.414 4.467-4.24V79.62h-3.393v15.21c0 .943-.15 1.62-.453 2.035-.3.415-.735.623-1.3.623-1.055 0-2.168-.698-3.336-2.093-1.17-1.394-1.753-2.845-1.753-4.353V79.622zm58.034 7.973v1.81c0 2.525-.375 4.56-1.13 6.106-.715 1.508-2.298 2.262-4.748 2.262-1.508-.188-2.262-1.45-2.262-3.788 0-.528.02-1.018.057-1.47.037-.49.112-.96.225-1.413.49-1.394 1.847-2.223 4.07-2.487 2.225-.302 3.488-.64 3.79-1.018z" color="#000" font-weight="400" font-family="sans-serif" white-space="normal" overflow="visible"/></svg>
